HIERARCHY
ROOT hip
{
	OFFSET 0.000000 0.000000 0.000000 
	CHANNELS 6 Xposition Yposition Zposition Xrotation Zrotation Yrotation
	JOINT abdomen
	{
		OFFSET 0.000000 3.402643 0.000000 
		CHANNELS 3 Xrotation Zrotation Yrotation
		JOINT chest
		{
			OFFSET 0.000000 8.438565 -0.680529 
			CHANNELS 3 Xrotation Zrotation Yrotation
			JOINT neck
			{
				OFFSET 0.000000 10.207942 -0.272212 
				CHANNELS 3 Xrotation Zrotation Yrotation
				JOINT head
				{
					OFFSET 0.000000 3.130431 0.000000 
					CHANNELS 3 Xrotation Zrotation Yrotation
					End Site
					{
						OFFSET 0.000000 3.130435 0.000000 
					}
				}
			}
			JOINT lCollar
			{
				OFFSET 3.470700 6.669187 -0.816635 
				CHANNELS 3 Yrotation Zrotation Xrotation
				JOINT lShldr
				{
					OFFSET 3.198488 0.000000 0.000000 
					CHANNELS 3 Zrotation Yrotation Xrotation
					JOINT lForeArm
					{
						OFFSET 10.139888 0.000000 0.000000 
						CHANNELS 3 Yrotation Zrotation Xrotation
						JOINT lHand
						{
							OFFSET 8.370511 0.000000 0.000000 
							CHANNELS 3 Zrotation Yrotation Xrotation
							End Site
							{
								OFFSET 4.083176 0.000000 0.000000 
							}
						}
					}
				}
			}
			JOINT rCollar
			{
				OFFSET -3.470700 6.669187 -0.816635 
				CHANNELS 3 Yrotation Zrotation Xrotation
				JOINT rShldr
				{
					OFFSET -3.198488 0.000000 0.000000 
					CHANNELS 3 Zrotation Yrotation Xrotation
					JOINT rForeArm
					{
						OFFSET -10.139888 0.000000 0.000000 
						CHANNELS 3 Yrotation Zrotation Xrotation
						JOINT rHand
						{
							OFFSET -8.370511 0.000000 0.000000 
							CHANNELS 3 Zrotation Yrotation Xrotation
							End Site
							{
								OFFSET -4.083176 0.000000 0.000000 
							}
						}
					}
				}
			}
		}
	}
	JOINT lThigh
	{
		OFFSET 5.308129 -1.633274 1.361059 
		CHANNELS 3 Xrotation Zrotation Yrotation
		JOINT lShin
		{
			OFFSET -2.041588 -20.007561 0.000000 
			CHANNELS 3 Xrotation Zrotation Yrotation
			JOINT lFoot
			{
				OFFSET 0.000000 -19.190928 -1.224953 
				CHANNELS 3 Xrotation Yrotation Zrotation
				End Site
				{
					OFFSET 0.000000 -2.449906 4.627600 
				}
			}
		}
	}
	JOINT rThigh
	{
		OFFSET -5.308129 -1.633274 1.361059 
		CHANNELS 3 Xrotation Zrotation Yrotation
		JOINT rShin
		{
			OFFSET 2.041588 -20.007561 0.000000 
			CHANNELS 3 Xrotation Zrotation Yrotation
			JOINT rFoot
			{
				OFFSET 0.000000 -19.190928 -1.224953 
				CHANNELS 3 Xrotation Yrotation Zrotation
				End Site
				{
					OFFSET 0.000000 -2.449906 4.627600 
				}
			}
		}
	}
}
MOTION
Frames: 16
Frame Time: 0.033333
0.091068 37.766537 -0.051344 -1.064453 -1.425781 124.452888 46.284401 -5.038465 -2.114135 -23.779299 5.781250 -0.751953 51.063168 8.107644 2.471410 -61.201172 -8.886717 -1.171875 2.000000 -2.000000 0.000000 -52.519535 -4.746094 -23.896482 -79.391510 -0.529833 -2.596418 41.666641 40.574360 49.783970 -2.000000 2.000000 0.000000 72.539063 -15.322266 -28.720703 142.932999 -2.767205 -2.084618 23.563044 -23.259758 -8.119668 -55.654007 33.388203 29.278904 65.182350 -2.516125 -4.741703 5.704860 24.804037 4.115014 -61.302574 -33.509758 -15.996115 63.785580 2.060422 4.317770 14.478494 -25.216270 5.117894 
0.215109 37.766537 -0.076709 -1.064453 -1.425781 124.452888 45.959732 -5.265799 -2.398495 -23.964842 5.605469 -0.780296 51.063168 8.107644 2.471410 -60.947266 -8.388671 -1.474610 2.000000 -2.000000 0.000000 -52.744141 -4.345703 -23.408203 -79.391518 -0.520084 -2.596986 41.392796 40.592712 49.682484 -2.000000 2.000000 0.000000 73.242188 -15.615236 -28.947941 143.114044 -2.776875 -1.919417 23.811514 -23.236731 -8.302608 -55.456577 33.354740 29.361731 65.348267 -2.467190 -4.754294 5.428006 24.666208 4.175217 -61.088623 -33.490948 -16.073889 64.137558 2.031109 4.326927 14.339330 -25.203266 4.902647 
0.355298 37.758667 -0.095826 -1.064453 -1.425781 124.452888 45.409401 -5.439418 -2.380219 -23.964842 5.605469 -0.780296 51.063168 8.107644 2.471410 -60.732422 -7.890625 -1.591797 2.000000 -2.000000 0.000000 -52.929688 -3.613281 -23.086554 -79.215195 -0.518952 -2.577495 41.462463 40.536823 49.875534 -2.000000 2.000000 0.000000 73.613281 -15.859375 -29.609375 143.101868 -2.877375 -2.208383 23.314871 -23.595469 -7.838617 -55.458355 33.377739 29.183506 65.525139 -2.447716 -4.737485 5.498821 24.569422 4.317885 -61.088623 -33.490940 -16.073889 64.313469 2.021293 4.334358 14.158284 -25.036205 4.735311 
0.498741 37.766537 -0.120125 -0.908203 -1.425781 124.453133 45.095291 -5.673588 -2.646343 -23.974609 5.429688 -0.800781 51.063168 8.107644 2.471410 -60.322269 -7.412108 -1.718750 2.000000 -2.000000 0.000000 -53.183594 -3.232422 -22.764221 -79.031342 -0.356611 -2.645611 41.471836 40.537201 49.884975 -2.000000 2.000000 0.000000 74.208984 -15.898438 -30.468750 143.114655 -2.744962 -2.298451 23.882149 -23.736767 -8.261305 -55.233833 33.475540 29.328331 65.672417 -2.105855 -4.673464 5.257519 24.455961 4.335148 -61.029175 -33.587852 -16.133095 64.489525 2.001791 4.335935 13.674343 -25.212126 4.715623 
0.631107 37.735020 -0.133086 -0.908203 -1.240234 124.619141 44.746456 -5.996814 -2.759230 -24.150391 5.439453 -1.005859 51.063168 8.107644 2.471410 -60.087894 -6.914062 -1.845703 2.000000 -2.000000 0.000000 -53.564453 -3.007812 -22.294920 -78.855286 -0.365795 -2.635298 41.471836 40.537201 49.884975 -2.000000 2.000000 0.000000 74.921875 -16.171875 -30.546873 143.277390 -2.877944 -2.198638 23.453276 -23.745466 -8.071720 -55.426201 33.694668 28.616175 66.052734 -2.437973 -4.774724 5.234808 24.587568 4.168613 -60.788227 -33.718002 -16.301519 64.665565 1.982288 4.337454 14.043567 -25.437199 4.864422 
0.780796 37.703518 -0.144196 -0.908203 -1.240234 124.619141 44.413704 -6.234386 -3.015275 -24.150391 5.263672 -1.015625 51.063168 8.107644 2.471410 -59.687500 -6.425780 -1.972657 2.000000 -2.000000 0.000000 -53.789066 -2.597656 -21.806641 -78.679504 -0.365795 -2.635298 41.577061 40.375175 49.809948 -2.000000 2.000000 0.000000 75.478516 -16.152344 -31.220703 143.277390 -2.877944 -2.198638 23.315384 -23.898331 -8.127204 -55.311840 33.826935 28.526972 66.190147 -2.066970 -4.699268 5.146311 24.515718 3.983092 -60.336491 -33.803173 -16.498171 64.841461 1.972474 4.344795 13.708148 -25.217363 4.365702 
0.923906 37.695644 -0.161091 -0.908203 -1.240234 124.619141 44.100899 -6.477666 -3.284952 -24.160156 5.087891 -1.035156 51.063168 8.107644 2.471410 -59.453121 -5.937500 -2.247104 2.000000 -2.000000 0.000000 -54.013672 -2.167969 -21.318357 -78.327667 -0.384727 -2.624418 41.577061 40.375175 49.809948 -2.000000 2.000000 0.000000 76.269531 -16.582031 -31.399267 143.452866 -2.888260 -2.189461 23.228626 -23.612860 -7.647590 -55.107216 33.935268 28.492760 66.542564 -2.027071 -4.692023 4.883641 24.194906 4.277296 -60.014374 -33.822571 -17.401112 64.970375 1.454981 4.164640 13.336286 -24.840307 4.369138 
1.073825 37.664127 -0.179502 -0.722656 -1.064453 124.619141 43.568081 -6.795110 -3.385518 -24.335938 5.087891 -1.044922 51.063168 8.107644 2.471410 -59.238285 -5.419921 -2.343750 2.000000 -2.000000 0.000000 -54.033203 -1.777344 -20.625299 -77.802940 -0.575619 -2.711193 41.489353 40.146740 49.914013 -2.000000 2.000000 0.000000 77.294922 -16.445311 -32.041016 143.457565 -2.530875 -1.943718 23.201513 -23.563341 -7.238861 -55.104591 33.949787 28.304537 66.718384 -2.047494 -4.708910 4.717335 24.000654 4.020879 -59.618282 -33.797989 -17.371798 65.156372 1.435461 4.156235 13.103191 -24.533039 4.423805 
1.224661 37.648369 -0.196661 -0.722656 -1.064453 124.619141 43.256901 -7.054342 -3.640452 -24.345703 4.912109 -1.230469 51.063168 8.107644 2.471410 -59.013676 -5.097656 -2.587891 2.000000 -2.000000 0.000000 -54.287109 -1.347656 -20.312731 -77.285080 -0.594552 -2.700214 41.673553 39.929211 50.041389 -2.000000 2.000000 0.000000 77.255859 -16.962891 -32.864178 143.101868 -2.877375 -2.208383 23.433744 -23.442131 -7.784069 -55.097816 34.121456 27.857214 66.930557 -2.180199 -4.828854 4.530349 24.337643 4.296845 -59.313709 -34.010731 -17.636808 65.145996 1.426602 4.169162 12.914886 -24.565235 4.166693 
1.362491 37.601105 -0.205895 -0.722656 -1.064453 124.619141 42.935150 -7.291878 -3.897702 -24.345703 4.736328 -1.250000 51.063168 8.107644 2.471410 -58.798832 -4.765625 -2.646484 2.000000 -2.000000 0.000000 -54.326172 -1.513672 -19.482422 -76.581398 -0.612919 -2.679589 41.442986 39.861294 49.635860 -2.000000 2.000000 0.000000 77.080078 -17.197266 -33.411091 142.395920 -2.844629 -2.098910 23.316837 -23.849518 -8.908451 -54.960781 34.394318 27.861443 67.307907 -2.135304 -4.676309 4.646366 23.932667 4.200927 -59.125771 -34.017918 -17.292208 65.369247 1.933534 4.360898 12.770275 -25.222815 4.274178 
1.517727 37.585342 -0.222652 -0.722656 -1.064453 124.619141 42.415302 -7.634349 -3.987122 -24.521486 4.746094 -1.269531 51.063168 8.107644 2.471410 -58.779297 -4.433594 -2.862083 2.000000 -2.000000 0.000000 -54.257809 -1.152344 -19.306835 -75.701927 -0.641036 -2.658397 40.951431 40.037304 49.033813 -2.000000 2.000000 0.000000 76.923820 -17.460938 -34.296871 141.697891 -2.824089 -2.283506 23.403505 -24.134993 -9.388040 -55.117146 34.570332 27.681957 67.474083 -2.147686 -4.687803 4.446521 24.047482 3.728050 -58.920956 -33.969360 -17.523294 65.544907 1.914031 4.371821 12.654325 -25.001923 4.116991 
1.661020 37.561710 -0.232072 -0.722656 -1.064453 124.443359 42.105122 -7.887825 -4.229615 -24.521484 4.570313 -1.454300 51.063168 8.107644 2.471410 -58.935543 -4.238281 -3.067128 2.000000 -2.000000 0.000000 -54.160156 -1.181641 -18.974812 -74.822189 -0.678335 -2.626892 40.328754 40.071461 48.208736 -2.000000 2.000000 0.000000 76.914063 -17.890627 -35.120186 140.993439 -2.670598 -2.567458 23.274107 -24.639765 -10.122148 -55.095322 34.722252 27.416409 67.597672 -1.949863 -4.734894 4.413633 23.900908 3.696638 -58.727539 -33.981255 -17.456310 65.710876 1.913888 4.384273 12.249912 -25.022337 3.980361 
1.806523 37.538074 -0.240681 -0.722656 -1.064453 124.443359 41.609722 -8.141291 -4.472134 -24.521484 4.570313 -1.454300 51.063168 8.107644 2.471410 -58.935543 -4.238281 -3.242910 2.000000 -2.000000 0.000000 -54.062500 -1.367188 -18.632813 -74.118782 -0.697268 -2.616012 39.747723 40.048874 47.603649 -2.000000 2.000000 0.000000 76.943359 -18.242188 -36.103519 140.293243 -2.626839 -2.310675 23.299116 -25.070236 -10.854271 -55.107407 34.755894 27.060564 67.966843 -2.089888 -4.853721 4.124779 23.929579 3.788875 -58.300144 -33.886032 -17.961836 65.700790 1.885605 4.385333 11.882192 -25.024473 3.893237 
1.946460 37.506561 -0.246756 -0.722656 -1.064453 124.267570 41.267712 -8.483660 -4.561807 -24.707031 4.404298 -1.493391 51.063168 8.107644 2.471410 -59.277340 -4.199218 -3.399153 2.000000 -2.000000 0.000000 -54.003906 -1.162109 -18.310747 -73.591156 -0.716200 -2.605132 39.371037 40.063709 46.920185 -2.000000 2.000000 0.000000 76.601563 -18.554689 -36.757809 139.400604 -2.750289 -2.542755 22.758282 -25.349960 -11.548848 -55.134937 35.182354 26.913109 68.132652 -2.076226 -4.867702 4.199894 23.853521 3.548416 -58.142975 -33.719093 -17.914469 65.887230 1.894376 4.375858 11.784506 -24.916420 3.527915 
2.091732 37.467171 -0.254833 -0.908203 -1.240234 124.277344 40.950687 -8.762177 -4.794465 -24.697268 4.228516 -1.679687 51.063168 8.107644 2.471410 -59.453129 -4.189453 -3.730469 2.000000 -2.000000 0.000000 -53.906250 -0.800781 -17.968750 -73.060661 -0.572917 -2.496128 38.577915 40.278000 46.208786 -2.000000 2.000000 0.000000 76.455078 -18.886719 -37.841801 138.528381 -2.708342 -2.422976 22.796724 -25.966360 -12.748566 -55.134949 35.182350 26.913111 68.307953 -2.056766 -4.888319 3.893452 23.664961 3.726661 -58.013824 -33.941128 -18.274155 65.887230 1.894374 4.375858 11.574350 -25.023842 3.406199 
2.241494 37.498684 -0.291458 -0.908203 -1.240234 124.277344 40.457779 -9.031546 -5.022268 -24.697268 4.228516 -1.679687 51.063168 8.107644 2.471410 -59.814453 -4.160156 -3.877662 2.000000 -2.000000 0.000000 -53.906250 -0.761719 -17.431639 -72.711693 -0.734567 -2.584506 38.132301 40.495945 45.960690 -2.000000 2.000000 0.000000 76.152344 -19.140627 -38.701172 137.313095 -2.543070 -2.237789 23.042194 -26.324099 -13.664886 -55.524284 35.424286 26.283140 68.697250 -2.203944 -4.996420 3.809490 23.818563 3.425858 -58.013824 -33.941128 -18.274151 66.053101 1.874851 4.385900 11.362267 -25.177315 3.490382 
